<svg width="64" height="64" viewBox="0 0 64 64" fill="none" xmlns="http://www.w3.org/2000/svg">
<rect width="64" height="64" fill="#1F232D"/>
<path d="M43.7217 23.9028V17.12H44.8336V18.38H45.0683L44.8336 18.632C44.8336 18.112 44.9942 17.712 45.3154 17.432C45.6366 17.144 46.0813 17 46.6496 17C47.3332 17 47.8768 17.204 48.2804 17.612C48.6839 18.02 48.8857 18.576 48.8857 19.28V23.9028H47.7738V19.4C47.7738 18.928 47.6421 18.568 47.3785 18.32C47.1232 18.064 46.7732 17.936 46.3284 17.936C45.8672 17.936 45.5007 18.072 45.2289 18.344C44.9653 18.616 44.8336 19.008 44.8336 19.52V23.9028H43.7217Z" fill="#9C9FA7"/>
<path d="M36.413 23.84C35.8776 23.84 35.4082 23.736 35.0046 23.528C34.6093 23.32 34.3004 23.028 34.078 22.652C33.8639 22.268 33.7568 21.824 33.7568 21.32V19.52C33.7568 19.008 33.8639 18.564 34.078 18.188C34.3004 17.812 34.6093 17.52 35.0046 17.312C35.4082 17.104 35.8776 17 36.413 17C36.9483 17 37.4137 17.104 37.809 17.312C38.2126 17.52 38.5214 17.812 38.7355 18.188C38.9579 18.564 39.0691 19.008 39.0691 19.52V20.684H34.844V21.32C34.844 21.84 34.9799 22.24 35.2517 22.52C35.5235 22.792 35.9106 22.928 36.413 22.928C36.8412 22.928 37.1872 22.856 37.4507 22.712C37.7143 22.56 37.8749 22.336 37.9325 22.04H39.0444C38.9703 22.592 38.6903 23.032 38.2043 23.36C37.7266 23.68 37.1295 23.84 36.413 23.84ZM37.9819 19.964V19.52C37.9819 19 37.8461 18.6 37.5743 18.32C37.3107 18.04 36.9236 17.9 36.413 17.9C35.9106 17.9 35.5235 18.04 35.2517 18.32C34.9799 18.6 34.844 19 34.844 19.52V19.868H38.0684L37.9819 19.964Z" fill="#9C9FA7"/>
<path d="M23.9658 25V17.12H25.0777V18.38H25.3001L25.0777 18.632C25.0777 18.128 25.2465 17.732 25.5842 17.444C25.9301 17.148 26.3831 17 26.9432 17C27.6268 17 28.1703 17.22 28.5739 17.66C28.9857 18.092 29.1916 18.688 29.1916 19.448V20.56C29.1916 21.064 29.0969 21.5 28.9075 21.868C28.7263 22.236 28.4668 22.52 28.1292 22.72C27.7997 22.92 27.4044 23.02 26.9432 23.02H25.0777V23.14V25H23.9658ZM26.5725 22.084C27.042 22.084 27.4085 21.948 27.6721 21.676C27.9439 21.404 28.0797 21.012 28.0797 20.5V19.52C28.0797 19.008 27.9439 18.616 27.6721 18.344C27.4085 18.072 27.042 17.936 26.5725 17.936C26.1196 17.936 25.7572 18.076 25.4854 18.356C25.2136 18.636 25.0777 19.024 25.0777 19.52V20.5C25.0777 20.996 25.0777 22.084 25.0777 22.084C25.0777 22.084 26.1196 22.084 26.5725 22.084Z" fill="#9C9FA7"/>
<path d="M16.6561 23.816C16.1126 23.816 15.6431 23.716 15.2478 23.516C14.8524 23.316 14.5436 23.028 14.3212 22.652C14.1071 22.268 14 21.816 14 21.296V19.544C14 19.016 14.1071 18.564 14.3212 18.188C14.5436 17.812 14.8524 17.524 15.2478 17.324C15.6431 17.124 16.1126 17.024 16.6561 17.024C17.1997 17.024 17.6692 17.124 18.0645 17.324C18.4598 17.524 18.7646 17.812 18.9787 18.188C19.2011 18.564 19.3123 19.012 19.3123 19.532V21.296C19.3123 21.816 19.2011 22.268 18.9787 22.652C18.7646 23.028 18.4598 23.316 18.0645 23.516C17.6692 23.716 17.1997 23.816 16.6561 23.816ZM16.6561 22.856C17.1421 22.856 17.5209 22.724 17.7927 22.46C18.0645 22.196 18.2004 21.808 18.2004 21.296V19.544C18.2004 19.032 18.0645 18.644 17.7927 18.38C17.5209 18.116 17.1421 17.984 16.6561 17.984C16.1784 17.984 15.7996 18.116 15.5196 18.38C15.2478 18.644 15.1119 19.032 15.1119 19.544V21.296C15.1119 21.808 15.2478 22.196 15.5196 22.46C15.7996 22.724 16.1784 22.856 16.6561 22.856Z" fill="#9C9FA7"/>
<g filter="url(#filter0_f_1746_50)">
<path d="M37 45.52L43.144 36.376L40.096 28H43.936L45.136 31.84C45.248 32.192 45.344 32.512 45.424 32.8C45.52 33.088 45.576 33.296 45.592 33.424C45.656 33.296 45.752 33.088 45.88 32.8C46.024 32.512 46.208 32.192 46.432 31.84L48.928 28H52.912L47.176 36.568L50.44 45.52H46.6L45.184 41.2C45.072 40.848 44.968 40.52 44.872 40.216C44.792 39.912 44.736 39.68 44.704 39.52C44.64 39.68 44.528 39.912 44.368 40.216C44.208 40.52 44.016 40.848 43.792 41.2L40.984 45.52H37Z" fill="#0066FF" fill-opacity="0.8"/>
</g>
<g filter="url(#filter1_f_1746_50)">
<path d="M24 45.52L26.784 28H38.064L37.512 31.36H29.784L29.184 35.248H36.288L35.76 38.608H28.704L27.6 45.52H24Z" fill="#70FF00" fill-opacity="0.5"/>
</g>
<g filter="url(#filter2_f_1746_50)">
<path d="M15.091 46C13.923 46 12.931 45.784 12.115 45.352C11.299 44.904 10.715 44.288 10.363 43.504C10.011 42.704 9.915 41.776 10.075 40.72L11.251 33.28C11.427 32.208 11.819 31.28 12.427 30.496C13.035 29.712 13.811 29.104 14.755 28.672C15.715 28.224 16.779 28 17.947 28C19.131 28 20.123 28.224 20.923 28.672C21.723 29.104 22.307 29.712 22.675 30.496C23.043 31.28 23.139 32.208 22.963 33.28H19.363C19.491 32.576 19.387 32.04 19.051 31.672C18.715 31.304 18.187 31.12 17.467 31.12C16.747 31.12 16.163 31.304 15.715 31.672C15.267 32.04 14.979 32.576 14.851 33.28L13.675 40.72C13.563 41.408 13.675 41.944 14.011 42.328C14.347 42.696 14.875 42.88 15.595 42.88C16.315 42.88 16.899 42.696 17.347 42.328C17.795 41.944 18.075 41.408 18.187 40.72L18.427 39.208H15.835L16.315 36.16H22.507L21.787 40.72C21.627 41.776 21.235 42.704 20.611 43.504C20.003 44.288 19.227 44.904 18.283 45.352C17.339 45.784 16.275 46 15.091 46Z" fill="#FF002E" fill-opacity="0.5"/>
</g>
<path d="M37.1045 45.76L43.2485 36.616L40.2005 28.24H44.0405L45.2405 32.08C45.3525 32.432 45.4485 32.752 45.5285 33.04C45.6245 33.328 45.6805 33.536 45.6965 33.664C45.7605 33.536 45.8565 33.328 45.9845 33.04C46.1285 32.752 46.3125 32.432 46.5365 32.08L49.0325 28.24H53.0165L47.2805 36.808L50.5445 45.76H46.7045L45.2885 41.44C45.1765 41.088 45.0725 40.76 44.9765 40.456C44.8965 40.152 44.8405 39.92 44.8085 39.76C44.7445 39.92 44.6325 40.152 44.4725 40.456C44.3125 40.76 44.1205 41.088 43.8965 41.44L41.0885 45.76H37.1045Z" fill="#0066FF"/>
<path d="M23.9141 45.76L26.6981 28.24H37.9781L37.4261 31.6H29.6981L29.0981 35.488H36.2021L35.6741 38.848H28.6181L27.5141 45.76H23.9141Z" fill="#70FF00"/>
<path d="M15.091 46C13.923 46 12.931 45.784 12.115 45.352C11.299 44.904 10.715 44.288 10.363 43.504C10.011 42.704 9.915 41.776 10.075 40.72L11.251 33.28C11.427 32.208 11.819 31.28 12.427 30.496C13.035 29.712 13.811 29.104 14.755 28.672C15.715 28.224 16.779 28 17.947 28C19.131 28 20.123 28.224 20.923 28.672C21.723 29.104 22.307 29.712 22.675 30.496C23.043 31.28 23.139 32.208 22.963 33.28H19.363C19.491 32.576 19.387 32.04 19.051 31.672C18.715 31.304 18.187 31.12 17.467 31.12C16.747 31.12 16.163 31.304 15.715 31.672C15.267 32.04 14.979 32.576 14.851 33.28L13.675 40.72C13.563 41.408 13.675 41.944 14.011 42.328C14.347 42.696 14.875 42.88 15.595 42.88C16.315 42.88 16.899 42.696 17.347 42.328C17.795 41.944 18.075 41.408 18.187 40.72L18.427 39.208H15.835L16.315 36.16H22.507L21.787 40.72C21.627 41.776 21.235 42.704 20.611 43.504C20.003 44.288 19.227 44.904 18.283 45.352C17.339 45.784 16.275 46 15.091 46Z" fill="#FF002E"/>
<defs>
<filter id="filter0_f_1746_50" x="36" y="27" width="17.9121" height="19.52" filterUnits="userSpaceOnUse" color-interpolation-filters="sRGB">
<feFlood flood-opacity="0" result="BackgroundImageFix"/>
<feBlend mode="normal" in="SourceGraphic" in2="BackgroundImageFix" result="shape"/>
<feGaussianBlur stdDeviation="0.5" result="effect1_foregroundBlur_1746_50"/>
</filter>
<filter id="filter1_f_1746_50" x="23" y="27" width="16.0645" height="19.52" filterUnits="userSpaceOnUse" color-interpolation-filters="sRGB">
<feFlood flood-opacity="0" result="BackgroundImageFix"/>
<feBlend mode="normal" in="SourceGraphic" in2="BackgroundImageFix" result="shape"/>
<feGaussianBlur stdDeviation="0.5" result="effect1_foregroundBlur_1746_50"/>
</filter>
<filter id="filter2_f_1746_50" x="9" y="27" width="15.0488" height="20" filterUnits="userSpaceOnUse" color-interpolation-filters="sRGB">
<feFlood flood-opacity="0" result="BackgroundImageFix"/>
<feBlend mode="normal" in="SourceGraphic" in2="BackgroundImageFix" result="shape"/>
<feGaussianBlur stdDeviation="0.5" result="effect1_foregroundBlur_1746_50"/>
</filter>
</defs>
</svg>
