<svg width="47" height="22" viewBox="0 0 47 22" fill="none" xmlns="http://www.w3.org/2000/svg">
<g filter="url(#filter0_f_1748_86)">
<path d="M29 19.52L35.144 10.376L32.096 2H35.936L37.136 5.84C37.248 6.192 37.344 6.512 37.424 6.8C37.52 7.088 37.576 7.296 37.592 7.424C37.656 7.296 37.752 7.088 37.88 6.8C38.024 6.512 38.208 6.192 38.432 5.84L40.928 2H44.912L39.176 10.568L42.44 19.52H38.6L37.184 15.2C37.072 14.848 36.968 14.52 36.872 14.216C36.792 13.912 36.736 13.68 36.704 13.52C36.64 13.68 36.528 13.912 36.368 14.216C36.208 14.52 36.016 14.848 35.792 15.2L32.984 19.52H29Z" fill="#0066FF" fill-opacity="0.8"/>
</g>
<g filter="url(#filter1_f_1748_86)">
<path d="M16 19.52L18.784 2H30.064L29.512 5.36H21.784L21.184 9.248H28.288L27.76 12.608H20.704L19.6 19.52H16Z" fill="#70FF00" fill-opacity="0.5"/>
</g>
<g filter="url(#filter2_f_1748_86)">
<path d="M7.091 20C5.923 20 4.931 19.784 4.115 19.352C3.299 18.904 2.715 18.288 2.363 17.504C2.011 16.704 1.915 15.776 2.075 14.72L3.251 7.28C3.427 6.208 3.819 5.28 4.427 4.496C5.035 3.712 5.811 3.104 6.755 2.672C7.715 2.224 8.779 2 9.947 2C11.131 2 12.123 2.224 12.923 2.672C13.723 3.104 14.307 3.712 14.675 4.496C15.043 5.28 15.139 6.208 14.963 7.28H11.363C11.491 6.576 11.387 6.04 11.051 5.672C10.715 5.304 10.187 5.12 9.467 5.12C8.747 5.12 8.163 5.304 7.715 5.672C7.267 6.04 6.979 6.576 6.851 7.28L5.675 14.72C5.563 15.408 5.675 15.944 6.011 16.328C6.347 16.696 6.875 16.88 7.595 16.88C8.315 16.88 8.899 16.696 9.347 16.328C9.795 15.944 10.075 15.408 10.187 14.72L10.427 13.208H7.835L8.315 10.16H14.507L13.787 14.72C13.627 15.776 13.235 16.704 12.611 17.504C12.003 18.288 11.227 18.904 10.283 19.352C9.339 19.784 8.275 20 7.091 20Z" fill="#FF002E" fill-opacity="0.5"/>
</g>
<path d="M29.1045 19.76L35.2485 10.616L32.2005 2.23999H36.0405L37.2405 6.07999C37.3525 6.43199 37.4485 6.75199 37.5285 7.03999C37.6245 7.32799 37.6805 7.53599 37.6965 7.66399C37.7605 7.53599 37.8565 7.32799 37.9845 7.03999C38.1285 6.75199 38.3125 6.43199 38.5365 6.07999L41.0325 2.23999H45.0165L39.2805 10.808L42.5445 19.76H38.7045L37.2885 15.44C37.1765 15.088 37.0725 14.76 36.9765 14.456C36.8965 14.152 36.8405 13.92 36.8085 13.76C36.7445 13.92 36.6325 14.152 36.4725 14.456C36.3125 14.76 36.1205 15.088 35.8965 15.44L33.0885 19.76H29.1045Z" fill="#0066FF"/>
<path d="M15.9141 19.76L18.6981 2.23999H29.9781L29.4261 5.59999H21.6981L21.0981 9.48799H28.2021L27.6741 12.848H20.6181L19.5141 19.76H15.9141Z" fill="#70FF00"/>
<path d="M7.091 20C5.923 20 4.931 19.784 4.115 19.352C3.299 18.904 2.715 18.288 2.363 17.504C2.011 16.704 1.915 15.776 2.075 14.72L3.251 7.28C3.427 6.208 3.819 5.28 4.427 4.496C5.035 3.712 5.811 3.104 6.755 2.672C7.715 2.224 8.779 2 9.947 2C11.131 2 12.123 2.224 12.923 2.672C13.723 3.104 14.307 3.712 14.675 4.496C15.043 5.28 15.139 6.208 14.963 7.28H11.363C11.491 6.576 11.387 6.04 11.051 5.672C10.715 5.304 10.187 5.12 9.467 5.12C8.747 5.12 8.163 5.304 7.715 5.672C7.267 6.04 6.979 6.576 6.851 7.28L5.675 14.72C5.563 15.408 5.675 15.944 6.011 16.328C6.347 16.696 6.875 16.88 7.595 16.88C8.315 16.88 8.899 16.696 9.347 16.328C9.795 15.944 10.075 15.408 10.187 14.72L10.427 13.208H7.835L8.315 10.16H14.507L13.787 14.72C13.627 15.776 13.235 16.704 12.611 17.504C12.003 18.288 11.227 18.904 10.283 19.352C9.339 19.784 8.275 20 7.091 20Z" fill="#FF002E"/>
<defs>
<filter id="filter0_f_1748_86" x="28" y="1" width="17.9121" height="19.52" filterUnits="userSpaceOnUse" color-interpolation-filters="sRGB">
<feFlood flood-opacity="0" result="BackgroundImageFix"/>
<feBlend mode="normal" in="SourceGraphic" in2="BackgroundImageFix" result="shape"/>
<feGaussianBlur stdDeviation="0.5" result="effect1_foregroundBlur_1748_86"/>
</filter>
<filter id="filter1_f_1748_86" x="15" y="1" width="16.0645" height="19.52" filterUnits="userSpaceOnUse" color-interpolation-filters="sRGB">
<feFlood flood-opacity="0" result="BackgroundImageFix"/>
<feBlend mode="normal" in="SourceGraphic" in2="BackgroundImageFix" result="shape"/>
<feGaussianBlur stdDeviation="0.5" result="effect1_foregroundBlur_1748_86"/>
</filter>
<filter id="filter2_f_1748_86" x="1" y="1" width="15.0488" height="20" filterUnits="userSpaceOnUse" color-interpolation-filters="sRGB">
<feFlood flood-opacity="0" result="BackgroundImageFix"/>
<feBlend mode="normal" in="SourceGraphic" in2="BackgroundImageFix" result="shape"/>
<feGaussianBlur stdDeviation="0.5" result="effect1_foregroundBlur_1748_86"/>
</filter>
</defs>
</svg>
